STARTFONT 2.1
COMMENT 
COMMENT This file has been produced by ttf2bdf written by Subhabrata Biswas
COMMENT 
COMMENT For comments, questions, bug reports, send a mail to
COMMENT                                           subhabrata.biswas@usa.net
COMMENT 
FONT -*-Roboto Mono-Medium-R-Normal--13-100-96-96-c-8--fontspecific
SIZE 10 96 96
FONTBOUNDINGBOX 17 18 -6 -4
STARTPROPERTIES 15
FOUNDRY "Misc"
FAMILY_NAME "Roboto Mono"
WEIGHT_NAME "Medium"
SLANT "R"
SETWIDTH_NAME "Normal"
PIXEL_SIZE 10
POINT_SIZE 100
RESOLUTION_X 96
RESOLUTION_Y 96
SPACING "C"
CHARSET_ENCODING "fontspecific"
FONT_ASCENT 14
FONT_DESCENT 4
DEFAULT_CHAR 12
COPYRIGHT "You may wish to put your copyright here"
ENDPROPERTIES
CHARS 245
STARTCHAR C0011
ENCODING 11
SWIDTH 600 0
DWIDTH 8 0
BBX 1 1 0 -1
BITMAP
00
ENDCHAR
STARTCHAR C0012
ENCODING 12
SWIDTH 600 0
DWIDTH 8 0
BBX 1 1 0 -1
BITMAP
00
ENDCHAR
STARTCHAR C0013
ENCODING 13
SWIDTH 600 0
DWIDTH 8 0
BBX 1 1 0 -1
BITMAP
00
ENDCHAR
STARTCHAR C0014
ENCODING 14
SWIDTH 600 0
DWIDTH 8 0
BBX 1 1 0 -1
BITMAP
00
ENDCHAR
STARTCHAR C0015
ENCODING 15
SWIDTH 600 0
DWIDTH 8 0
BBX 1 1 0 -1
BITMAP
00
ENDCHAR
STARTCHAR C0016
ENCODING 16
SWIDTH 600 0
DWIDTH 8 0
BBX 1 1 0 -1
BITMAP
00
ENDCHAR
STARTCHAR C0017
ENCODING 17
SWIDTH 600 0
DWIDTH 8 0
BBX 1 1 0 -1
BITMAP
00
ENDCHAR
STARTCHAR C0018
ENCODING 18
SWIDTH 600 0
DWIDTH 8 0
BBX 1 1 0 -1
BITMAP
00
ENDCHAR
STARTCHAR C0019
ENCODING 19
SWIDTH 600 0
DWIDTH 8 0
BBX 1 1 0 -1
BITMAP
00
ENDCHAR
STARTCHAR C0020
ENCODING 20
SWIDTH 600 0
DWIDTH 8 0
BBX 1 1 0 -1
BITMAP
00
ENDCHAR
STARTCHAR C0021
ENCODING 21
SWIDTH 600 0
DWIDTH 8 0
BBX 1 1 0 -1
BITMAP
00
ENDCHAR
STARTCHAR C0022
ENCODING 22
SWIDTH 600 0
DWIDTH 8 0
BBX 1 1 0 -1
BITMAP
00
ENDCHAR
STARTCHAR C0023
ENCODING 23
SWIDTH 600 0
DWIDTH 8 0
BBX 1 1 0 -1
BITMAP
00
ENDCHAR
STARTCHAR C0024
ENCODING 24
SWIDTH 600 0
DWIDTH 8 0
BBX 1 1 0 -1
BITMAP
00
ENDCHAR
STARTCHAR C0025
ENCODING 25
SWIDTH 600 0
DWIDTH 8 0
BBX 1 1 0 -1
BITMAP
00
ENDCHAR
STARTCHAR C0026
ENCODING 26
SWIDTH 600 0
DWIDTH 8 0
BBX 1 1 0 -1
BITMAP
00
ENDCHAR
STARTCHAR C0027
ENCODING 27
SWIDTH 600 0
DWIDTH 8 0
BBX 1 1 0 -1
BITMAP
00
ENDCHAR
STARTCHAR C0028
ENCODING 28
SWIDTH 600 0
DWIDTH 8 0
BBX 1 1 0 -1
BITMAP
00
ENDCHAR
STARTCHAR C0029
ENCODING 29
SWIDTH 600 0
DWIDTH 8 0
BBX 1 1 0 -1
BITMAP
00
ENDCHAR
STARTCHAR C0030
ENCODING 30
SWIDTH 600 0
DWIDTH 8 0
BBX 1 1 0 -1
BITMAP
00
ENDCHAR
STARTCHAR C0031
ENCODING 31
SWIDTH 600 0
DWIDTH 8 0
BBX 1 1 0 -1
BITMAP
00
ENDCHAR
STARTCHAR C0032- 
ENCODING 32
SWIDTH 600 0
DWIDTH 8 0
BBX 1 1 0 -1
BITMAP
00
ENDCHAR
STARTCHAR C0033-!
ENCODING 33
SWIDTH 600 0
DWIDTH 8 0
BBX 2 9 3 0
BITMAP
80
80
80
80
80
80
00
00
C0
ENDCHAR
STARTCHAR C0034-"
ENCODING 34
SWIDTH 600 0
DWIDTH 8 0
BBX 3 3 2 7
BITMAP
A0
A0
A0
ENDCHAR
STARTCHAR C0035-#
ENCODING 35
SWIDTH 600 0
DWIDTH 8 0
BBX 7 9 0 0
BITMAP
12
14
7E
24
24
F6
28
28
48
ENDCHAR
STARTCHAR C0036-$
ENCODING 36
SWIDTH 600 0
DWIDTH 8 0
BBX 6 12 1 -1
BITMAP
10
10
78
CC
C4
60
38
0C
84
CC
78
10
ENDCHAR
STARTCHAR C0037-%
ENCODING 37
SWIDTH 600 0
DWIDTH 8 0
BBX 8 9 0 0
BITMAP
E0
94
98
68
10
16
29
29
0E
ENDCHAR
STARTCHAR C0038-&
ENCODING 38
SWIDTH 600 0
DWIDTH 8 0
BBX 7 9 1 0
BITMAP
70
C8
58
70
60
94
9C
88
76
ENDCHAR
STARTCHAR C0039-'
ENCODING 39
SWIDTH 600 0
DWIDTH 8 0
BBX 1 3 3 7
BITMAP
80
80
80
ENDCHAR
STARTCHAR C0040-(
ENCODING 40
SWIDTH 600 0
DWIDTH 8 0
BBX 4 13 2 -3
BITMAP
30
20
40
40
C0
80
80
80
40
40
40
20
10
ENDCHAR
STARTCHAR C0041-)
ENCODING 41
SWIDTH 600 0
DWIDTH 8 0
BBX 3 13 2 -3
BITMAP
80
40
20
20
20
20
20
20
20
20
40
40
80
ENDCHAR
STARTCHAR C0042-*
ENCODING 42
SWIDTH 600 0
DWIDTH 8 0
BBX 6 6 1 3
BITMAP
10
90
FC
30
68
48
ENDCHAR
STARTCHAR C0043-+
ENCODING 43
SWIDTH 600 0
DWIDTH 8 0
BBX 6 7 1 1
BITMAP
20
20
20
FC
20
20
20
ENDCHAR
STARTCHAR C0044-,
ENCODING 44
SWIDTH 600 0
DWIDTH 8 0
BBX 2 3 2 -2
BITMAP
40
40
C0
ENDCHAR
STARTCHAR C0045--
ENCODING 45
SWIDTH 600 0
DWIDTH 8 0
BBX 5 1 1 4
BITMAP
F8
ENDCHAR
STARTCHAR C0046-.
ENCODING 46
SWIDTH 600 0
DWIDTH 8 0
BBX 2 2 3 0
BITMAP
C0
C0
ENDCHAR
STARTCHAR C0047-/
ENCODING 47
SWIDTH 600 0
DWIDTH 8 0
BBX 5 10 2 -1
BITMAP
18
10
20
20
20
40
40
C0
80
80
ENDCHAR
STARTCHAR C0048-0
ENCODING 48
SWIDTH 600 0
DWIDTH 8 0
BBX 6 9 1 0
BITMAP
78
8C
84
9C
B4
C4
84
CC
78
ENDCHAR
STARTCHAR C0049-1
ENCODING 49
SWIDTH 600 0
DWIDTH 8 0
BBX 4 9 1 0
BITMAP
30
D0
10
10
10
10
10
10
10
ENDCHAR
STARTCHAR C0050-2
ENCODING 50
SWIDTH 600 0
DWIDTH 8 0
BBX 6 9 1 0
BITMAP
F8
88
08
08
10
20
60
C0
FC
ENDCHAR
STARTCHAR C0051-3
ENCODING 51
SWIDTH 600 0
DWIDTH 8 0
BBX 5 9 1 0
BITMAP
F8
88
08
18
70
08
08
88
78
ENDCHAR
STARTCHAR C0052-4
ENCODING 52
SWIDTH 600 0
DWIDTH 8 0
BBX 7 9 0 0
BITMAP
0C
1C
14
24
24
44
FE
04
04
ENDCHAR
STARTCHAR C0053-5
ENCODING 53
SWIDTH 600 0
DWIDTH 8 0
BBX 6 9 1 0
BITMAP
7C
40
40
78
4C
04
04
CC
78
ENDCHAR
STARTCHAR C0054-6
ENCODING 54
SWIDTH 600 0
DWIDTH 8 0
BBX 6 9 1 0
BITMAP
30
40
80
F8
C8
84
84
C8
78
ENDCHAR
STARTCHAR C0055-7
ENCODING 55
SWIDTH 600 0
DWIDTH 8 0
BBX 6 9 1 0
BITMAP
FC
08
08
18
10
10
20
20
40
ENDCHAR
STARTCHAR C0056-8
ENCODING 56
SWIDTH 600 0
DWIDTH 8 0
BBX 6 9 1 0
BITMAP
78
CC
C4
48
78
C4
84
C4
78
ENDCHAR
STARTCHAR C0057-9
ENCODING 57
SWIDTH 600 0
DWIDTH 8 0
BBX 6 9 1 0
BITMAP
78
88
84
84
CC
74
08
18
70
ENDCHAR
STARTCHAR C0058-:
ENCODING 58
SWIDTH 600 0
DWIDTH 8 0
BBX 2 8 3 0
BITMAP
C0
C0
00
00
00
00
C0
C0
ENDCHAR
STARTCHAR C0059-;
ENCODING 59
SWIDTH 600 0
DWIDTH 8 0
BBX 2 10 3 -2
BITMAP
C0
C0
00
00
00
00
00
40
40
C0
ENDCHAR
STARTCHAR C0060-<
ENCODING 60
SWIDTH 600 0
DWIDTH 8 0
BBX 5 6 1 1
BITMAP
08
38
C0
E0
18
08
ENDCHAR
STARTCHAR C0061-=
ENCODING 61
SWIDTH 600 0
DWIDTH 8 0
BBX 6 4 1 2
BITMAP
FC
00
00
FC
ENDCHAR
STARTCHAR C0062->
ENCODING 62
SWIDTH 600 0
DWIDTH 8 0
BBX 6 6 1 1
BITMAP
80
70
0C
18
E0
80
ENDCHAR
STARTCHAR C0063-?
ENCODING 63
SWIDTH 600 0
DWIDTH 8 0
BBX 6 9 1 0
BITMAP
78
8C
0C
08
10
30
00
00
30
ENDCHAR
STARTCHAR C0064-@
ENCODING 64
SWIDTH 600 0
DWIDTH 8 0
BBX 7 9 0 0
BITMAP
3C
42
5E
A6
AA
AA
56
40
3C
ENDCHAR
STARTCHAR C0065-A
ENCODING 65
SWIDTH 600 0
DWIDTH 8 0
BBX 6 9 1 0
BITMAP
30
30
30
48
48
48
FC
84
84
ENDCHAR
STARTCHAR C0066-B
ENCODING 66
SWIDTH 600 0
DWIDTH 8 0
BBX 6 9 1 0
BITMAP
F8
84
84
88
F8
84
84
8C
F8
ENDCHAR
STARTCHAR C0067-C
ENCODING 67
SWIDTH 600 0
DWIDTH 8 0
BBX 6 9 1 0
BITMAP
78
84
84
80
80
80
84
CC
78
ENDCHAR
STARTCHAR C0068-D
ENCODING 68
SWIDTH 600 0
DWIDTH 8 0
BBX 6 9 1 0
BITMAP
F8
8C
84
84
84
84
84
88
F0
ENDCHAR
STARTCHAR C0069-E
ENCODING 69
SWIDTH 600 0
DWIDTH 8 0
BBX 6 9 1 0
BITMAP
FC
80
80
80
F8
80
80
80
FC
ENDCHAR
STARTCHAR C0070-F
ENCODING 70
SWIDTH 600 0
DWIDTH 8 0
BBX 6 9 1 0
BITMAP
FC
80
80
80
F8
80
80
80
80
ENDCHAR
STARTCHAR C0071-G
ENCODING 71
SWIDTH 600 0
DWIDTH 8 0
BBX 6 9 1 0
BITMAP
78
84
80
80
9C
84
84
C4
78
ENDCHAR
STARTCHAR C0072-H
ENCODING 72
SWIDTH 600 0
DWIDTH 8 0
BBX 6 9 1 0
BITMAP
84
84
84
84
FC
84
84
84
84
ENDCHAR
STARTCHAR C0073-I
ENCODING 73
SWIDTH 600 0
DWIDTH 8 0
BBX 6 9 1 0
BITMAP
FC
20
20
20
20
20
20
20
FC
ENDCHAR
STARTCHAR C0074-J
ENCODING 74
SWIDTH 600 0
DWIDTH 8 0
BBX 6 9 1 0
BITMAP
0C
0C
0C
0C
0C
0C
8C
88
78
ENDCHAR
STARTCHAR C0075-K
ENCODING 75
SWIDTH 600 0
DWIDTH 8 0
BBX 7 9 1 0
BITMAP
8C
88
90
A0
F0
D0
98
8C
86
ENDCHAR
STARTCHAR C0076-L
ENCODING 76
SWIDTH 600 0
DWIDTH 8 0
BBX 6 9 1 0
BITMAP
80
80
80
80
80
80
80
80
FC
ENDCHAR
STARTCHAR C0077-M
ENCODING 77
SWIDTH 600 0
DWIDTH 8 0
BBX 6 9 1 0
BITMAP
CC
CC
CC
B4
B4
B4
84
84
84
ENDCHAR
STARTCHAR C0078-N
ENCODING 78
SWIDTH 600 0
DWIDTH 8 0
BBX 6 9 1 0
BITMAP
84
C4
E4
A4
B4
94
9C
8C
8C
ENDCHAR
STARTCHAR C0079-O
ENCODING 79
SWIDTH 600 0
DWIDTH 8 0
BBX 6 9 1 0
BITMAP
78
8C
84
84
84
84
84
CC
78
ENDCHAR
STARTCHAR C0080-P
ENCODING 80
SWIDTH 600 0
DWIDTH 8 0
BBX 6 9 1 0
BITMAP
F8
84
84
84
F8
80
80
80
80
ENDCHAR
STARTCHAR C0081-Q
ENCODING 81
SWIDTH 600 0
DWIDTH 8 0
BBX 6 11 1 -2
BITMAP
78
8C
84
84
84
84
84
CC
78
0C
04
ENDCHAR
STARTCHAR C0082-R
ENCODING 82
SWIDTH 600 0
DWIDTH 8 0
BBX 6 9 1 0
BITMAP
F8
84
84
84
F8
98
88
8C
84
ENDCHAR
STARTCHAR C0083-S
ENCODING 83
SWIDTH 600 0
DWIDTH 8 0
BBX 6 9 1 0
BITMAP
78
84
80
40
38
0C
84
84
78
ENDCHAR
STARTCHAR C0084-T
ENCODING 84
SWIDTH 600 0
DWIDTH 8 0
BBX 7 9 0 0
BITMAP
FE
10
10
10
10
10
10
10
10
ENDCHAR
STARTCHAR C0085-U
ENCODING 85
SWIDTH 600 0
DWIDTH 8 0
BBX 6 9 1 0
BITMAP
84
84
84
84
84
84
84
CC
78
ENDCHAR
STARTCHAR C0086-V
ENCODING 86
SWIDTH 600 0
DWIDTH 8 0
BBX 7 9 0 0
BITMAP
C2
42
64
24
24
28
18
18
18
ENDCHAR
STARTCHAR C0087-W
ENCODING 87
SWIDTH 600 0
DWIDTH 8 0
BBX 8 9 0 0
BITMAP
DB
5A
5A
5A
5A
66
66
66
24
ENDCHAR
STARTCHAR C0088-X
ENCODING 88
SWIDTH 600 0
DWIDTH 8 0
BBX 6 9 1 0
BITMAP
84
48
58
30
30
30
48
CC
84
ENDCHAR
STARTCHAR C0089-Y
ENCODING 89
SWIDTH 600 0
DWIDTH 8 0
BBX 7 9 0 0
BITMAP
C2
64
24
28
18
10
10
10
10
ENDCHAR
STARTCHAR C0090-Z
ENCODING 90
SWIDTH 600 0
DWIDTH 8 0
BBX 6 9 1 0
BITMAP
FC
08
18
10
20
60
40
80
FC
ENDCHAR
STARTCHAR C0091-[
ENCODING 91
SWIDTH 600 0
DWIDTH 8 0
BBX 2 13 3 -2
BITMAP
C0
80
80
80
80
80
80
80
80
80
80
80
C0
ENDCHAR
STARTCHAR C0092-\
ENCODING 92
SWIDTH 600 0
DWIDTH 8 0
BBX 5 10 1 -1
BITMAP
C0
40
20
20
20
10
10
18
08
08
ENDCHAR
STARTCHAR C0093-]
ENCODING 93
SWIDTH 600 0
DWIDTH 8 0
BBX 2 13 3 -2
BITMAP
C0
40
40
40
40
40
40
40
40
40
40
40
C0
ENDCHAR
STARTCHAR C0094-^
ENCODING 94
SWIDTH 600 0
DWIDTH 8 0
BBX 5 5 1 4
BITMAP
30
30
50
48
C8
ENDCHAR
STARTCHAR C0095-_
ENCODING 95
SWIDTH 600 0
DWIDTH 8 0
BBX 6 1 1 -1
BITMAP
FC
ENDCHAR
STARTCHAR C0096-`
ENCODING 96
SWIDTH 600 0
DWIDTH 8 0
BBX 2 1 3 8
BITMAP
C0
ENDCHAR
STARTCHAR C0097-a
ENCODING 97
SWIDTH 600 0
DWIDTH 8 0
BBX 6 7 1 0
BITMAP
78
88
0C
7C
8C
8C
7C
ENDCHAR
STARTCHAR C0098-b
ENCODING 98
SWIDTH 600 0
DWIDTH 8 0
BBX 6 10 1 0
BITMAP
80
80
80
B8
CC
84
84
84
CC
B8
ENDCHAR
STARTCHAR C0099-c
ENCODING 99
SWIDTH 600 0
DWIDTH 8 0
BBX 6 7 1 0
BITMAP
78
CC
80
80
80
CC
78
ENDCHAR
STARTCHAR C0100-d
ENCODING 100
SWIDTH 600 0
DWIDTH 8 0
BBX 6 10 1 0
BITMAP
04
04
04
74
CC
84
84
84
CC
74
ENDCHAR
STARTCHAR C0101-e
ENCODING 101
SWIDTH 600 0
DWIDTH 8 0
BBX 6 7 1 0
BITMAP
78
CC
84
FC
80
C4
78
ENDCHAR
STARTCHAR C0102-f
ENCODING 102
SWIDTH 600 0
DWIDTH 8 0
BBX 6 10 1 0
BITMAP
1C
20
20
FC
20
20
20
20
20
20
ENDCHAR
STARTCHAR C0103-g
ENCODING 103
SWIDTH 600 0
DWIDTH 8 0
BBX 6 10 1 -3
BITMAP
74
CC
84
84
84
CC
74
0C
C8
30
ENDCHAR
STARTCHAR C0104-h
ENCODING 104
SWIDTH 600 0
DWIDTH 8 0
BBX 6 10 1 0
BITMAP
80
80
80
B8
CC
84
84
84
84
84
ENDCHAR
STARTCHAR C0105-i
ENCODING 105
SWIDTH 600 0
DWIDTH 8 0
BBX 6 9 1 0
BITMAP
30
00
F0
10
10
10
10
10
FC
ENDCHAR
STARTCHAR C0106-j
ENCODING 106
SWIDTH 600 0
DWIDTH 8 0
BBX 4 12 1 -3
BITMAP
10
00
70
10
10
10
10
10
10
10
10
E0
ENDCHAR
STARTCHAR C0107-k
ENCODING 107
SWIDTH 600 0
DWIDTH 8 0
BBX 6 10 1 0
BITMAP
80
80
80
8C
90
A0
E0
90
88
8C
ENDCHAR
STARTCHAR C0108-l
ENCODING 108
SWIDTH 600 0
DWIDTH 8 0
BBX 6 10 1 0
BITMAP
F0
10
10
10
10
10
10
10
10
FC
ENDCHAR
STARTCHAR C0109-m
ENCODING 109
SWIDTH 600 0
DWIDTH 8 0
BBX 6 7 1 0
BITMAP
EC
B4
A4
A4
A4
A4
A4
ENDCHAR
STARTCHAR C0110-n
ENCODING 110
SWIDTH 600 0
DWIDTH 8 0
BBX 6 7 1 0
BITMAP
B8
CC
84
84
84
84
84
ENDCHAR
STARTCHAR C0111-o
ENCODING 111
SWIDTH 600 0
DWIDTH 8 0
BBX 6 7 1 0
BITMAP
78
CC
84
84
84
8C
78
ENDCHAR
STARTCHAR C0112-p
ENCODING 112
SWIDTH 600 0
DWIDTH 8 0
BBX 6 10 1 -3
BITMAP
B8
CC
84
84
84
8C
F8
80
80
80
ENDCHAR
STARTCHAR C0113-q
ENCODING 113
SWIDTH 600 0
DWIDTH 8 0
BBX 6 10 1 -3
BITMAP
74
CC
84
84
84
CC
74
04
04
04
ENDCHAR
STARTCHAR C0114-r
ENCODING 114
SWIDTH 600 0
DWIDTH 8 0
BBX 5 7 2 0
BITMAP
B8
C0
80
80
80
80
80
ENDCHAR
STARTCHAR C0115-s
ENCODING 115
SWIDTH 600 0
DWIDTH 8 0
BBX 6 7 1 0
BITMAP
78
CC
C0
78
0C
84
78
ENDCHAR
STARTCHAR C0116-t
ENCODING 116
SWIDTH 600 0
DWIDTH 8 0
BBX 6 9 1 0
BITMAP
20
20
F8
20
20
20
20
20
3C
ENDCHAR
STARTCHAR C0117-u
ENCODING 117
SWIDTH 600 0
DWIDTH 8 0
BBX 6 7 1 0
BITMAP
84
84
84
84
84
CC
74
ENDCHAR
STARTCHAR C0118-v
ENCODING 118
SWIDTH 600 0
DWIDTH 8 0
BBX 6 7 1 0
BITMAP
84
8C
48
48
50
30
30
ENDCHAR
STARTCHAR C0119-w
ENCODING 119
SWIDTH 600 0
DWIDTH 8 0
BBX 8 7 0 0
BITMAP
93
5A
5A
5A
6A
64
24
ENDCHAR
STARTCHAR C0120-x
ENCODING 120
SWIDTH 600 0
DWIDTH 8 0
BBX 6 7 1 0
BITMAP
84
48
30
30
30
48
8C
ENDCHAR
STARTCHAR C0121-y
ENCODING 121
SWIDTH 600 0
DWIDTH 8 0
BBX 7 10 0 -3
BITMAP
C2
46
24
24
38
18
18
10
30
60
ENDCHAR
STARTCHAR C0122-z
ENCODING 122
SWIDTH 600 0
DWIDTH 8 0
BBX 6 7 1 0
BITMAP
FC
08
10
30
60
40
FC
ENDCHAR
STARTCHAR C0123-{
ENCODING 123
SWIDTH 600 0
DWIDTH 8 0
BBX 4 12 2 -2
BITMAP
10
20
20
20
20
40
C0
20
20
20
20
10
ENDCHAR
STARTCHAR C0124-|
ENCODING 124
SWIDTH 600 0
DWIDTH 8 0
BBX 1 12 3 -3
BITMAP
80
80
80
80
80
80
80
80
80
80
80
80
ENDCHAR
STARTCHAR C0125-}
ENCODING 125
SWIDTH 600 0
DWIDTH 8 0
BBX 4 12 2 -2
BITMAP
C0
40
60
60
60
20
30
20
60
60
40
C0
ENDCHAR
STARTCHAR C0126-~
ENCODING 126
SWIDTH 600 0
DWIDTH 8 0
BBX 7 2 0 3
BITMAP
72
9E
ENDCHAR
STARTCHAR C0127
ENCODING 127
SWIDTH 600 0
DWIDTH 8 0
BBX 1 1 0 -1
BITMAP
00
ENDCHAR
STARTCHAR C0128
ENCODING 128
SWIDTH 600 0
DWIDTH 8 0
BBX 7 9 0 0
BITMAP
FE
30
30
30
3E
32
32
32
36
ENDCHAR
STARTCHAR C0129
ENCODING 129
SWIDTH 600 0
DWIDTH 8 0
BBX 6 11 1 0
BITMAP
18
00
FC
80
80
80
80
80
80
80
80
ENDCHAR
STARTCHAR C0130
ENCODING 130
SWIDTH 600 0
DWIDTH 8 0
BBX 2 3 3 -2
BITMAP
C0
80
80
ENDCHAR
STARTCHAR C0131
ENCODING 131
SWIDTH 600 0
DWIDTH 8 0
BBX 6 9 1 0
BITMAP
18
00
FC
80
80
80
80
80
80
ENDCHAR
STARTCHAR C0132
ENCODING 132
SWIDTH 600 0
DWIDTH 8 0
BBX 4 3 2 -2
BITMAP
70
E0
A0
ENDCHAR
STARTCHAR C0133
ENCODING 133
SWIDTH 600 0
DWIDTH 8 0
BBX 6 2 2 0
BITMAP
FC
FC
ENDCHAR
STARTCHAR C0134
ENCODING 134
SWIDTH 600 0
DWIDTH 8 0
BBX 6 9 1 0
BITMAP
20
20
FC
20
20
20
20
20
20
ENDCHAR
STARTCHAR C0135
ENCODING 135
SWIDTH 600 0
DWIDTH 8 0
BBX 6 12 1 -3
BITMAP
20
20
FC
20
20
20
20
20
FC
20
20
20
ENDCHAR
STARTCHAR C0136
ENCODING 136
SWIDTH 600 0
DWIDTH 8 0
BBX 6 9 1 0
BITMAP
3C
60
40
F8
40
F8
40
60
3C
ENDCHAR
STARTCHAR C0137
ENCODING 137
SWIDTH 600 0
DWIDTH 8 0
BBX 8 9 0 0
BITMAP
60
90
EC
10
20
56
2A
29
3E
ENDCHAR
STARTCHAR C0138
ENCODING 138
SWIDTH 600 0
DWIDTH 8 0
BBX 8 9 0 0
BITMAP
78
48
48
4C
4A
4A
4B
4A
8E
ENDCHAR
STARTCHAR C0139
ENCODING 139
SWIDTH 600 0
DWIDTH 8 0
BBX 2 5 3 1
BITMAP
40
80
80
80
40
ENDCHAR
STARTCHAR C0140
ENCODING 140
SWIDTH 600 0
DWIDTH 8 0
BBX 6 9 1 0
BITMAP
90
90
90
90
FC
94
94
94
9C
ENDCHAR
STARTCHAR C0141
ENCODING 141
SWIDTH 600 0
DWIDTH 8 0
BBX 7 11 1 0
BITMAP
18
00
8C
88
90
A0
F0
D0
98
8C
86
ENDCHAR
STARTCHAR C0142
ENCODING 142
SWIDTH 600 0
DWIDTH 8 0
BBX 7 9 0 0
BITMAP
FE
10
10
10
1E
12
12
12
12
ENDCHAR
STARTCHAR C0143
ENCODING 143
SWIDTH 600 0
DWIDTH 8 0
BBX 6 11 1 -2
BITMAP
84
84
84
84
84
84
84
84
FC
30
30
ENDCHAR
STARTCHAR C0144
ENCODING 144
SWIDTH 600 0
DWIDTH 8 0
BBX 7 13 0 -3
BITMAP
40
F0
40
5C
66
42
42
42
42
42
02
06
0C
ENDCHAR
STARTCHAR C0145
ENCODING 145
SWIDTH 600 0
DWIDTH 8 0
BBX 2 3 3 7
BITMAP
40
80
80
ENDCHAR
STARTCHAR C0146
ENCODING 146
SWIDTH 600 0
DWIDTH 8 0
BBX 2 3 3 7
BITMAP
40
C0
80
ENDCHAR
STARTCHAR C0147
ENCODING 147
SWIDTH 600 0
DWIDTH 8 0
BBX 4 3 2 7
BITMAP
50
A0
A0
ENDCHAR
STARTCHAR C0148
ENCODING 148
SWIDTH 600 0
DWIDTH 8 0
BBX 4 3 2 7
BITMAP
50
F0
A0
ENDCHAR
STARTCHAR C0149
ENCODING 149
SWIDTH 600 0
DWIDTH 8 0
BBX 2 3 3 3
BITMAP
C0
C0
80
ENDCHAR
STARTCHAR C0150
ENCODING 150
SWIDTH 600 0
DWIDTH 8 0
BBX 7 1 0 4
BITMAP
FE
ENDCHAR
STARTCHAR C0151
ENCODING 151
SWIDTH 600 0
DWIDTH 8 0
BBX 7 1 0 4
BITMAP
7E
ENDCHAR
STARTCHAR C0152
ENCODING 152
SWIDTH 600 0
DWIDTH 8 0
BBX 1 1 0 -1
BITMAP
00
ENDCHAR
STARTCHAR C0153
ENCODING 153
SWIDTH 600 0
DWIDTH 8 0
BBX 6 3 1 6
BITMAP
D4
94
AC
ENDCHAR
STARTCHAR C0154
ENCODING 154
SWIDTH 600 0
DWIDTH 8 0
BBX 8 7 0 0
BITMAP
78
68
68
6E
4B
4B
CE
ENDCHAR
STARTCHAR C0155
ENCODING 155
SWIDTH 600 0
DWIDTH 8 0
BBX 2 5 3 1
BITMAP
80
40
40
40
80
ENDCHAR
STARTCHAR C0156
ENCODING 156
SWIDTH 600 0
DWIDTH 8 0
BBX 6 7 1 0
BITMAP
90
90
90
FC
94
94
9C
ENDCHAR
STARTCHAR C0157
ENCODING 157
SWIDTH 600 0
DWIDTH 8 0
BBX 6 9 1 0
BITMAP
30
00
8C
88
90
E0
90
88
84
ENDCHAR
STARTCHAR C0158
ENCODING 158
SWIDTH 600 0
DWIDTH 8 0
BBX 7 10 0 0
BITMAP
40
F0
40
5C
66
42
42
42
42
42
ENDCHAR
STARTCHAR C0159
ENCODING 159
SWIDTH 600 0
DWIDTH 8 0
BBX 6 9 1 -2
BITMAP
84
84
84
84
84
84
FC
20
20
ENDCHAR
STARTCHAR C0160
ENCODING 160
SWIDTH 600 0
DWIDTH 8 0
BBX 1 1 0 -1
BITMAP
00
ENDCHAR
STARTCHAR C0161
ENCODING 161
SWIDTH 600 0
DWIDTH 8 0
BBX 8 12 0 0
BITMAP
2C
10
01
C2
42
24
24
3C
18
18
10
70
ENDCHAR
STARTCHAR C0162
ENCODING 162
SWIDTH 600 0
DWIDTH 8 0
BBX 7 12 0 -3
BITMAP
2C
10
C2
46
24
24
38
18
18
10
30
60
ENDCHAR
STARTCHAR C0163
ENCODING 163
SWIDTH 600 0
DWIDTH 8 0
BBX 6 9 1 0
BITMAP
0C
0C
0C
0C
0C
0C
8C
88
78
ENDCHAR
STARTCHAR C0164
ENCODING 164
SWIDTH 600 0
DWIDTH 8 0
BBX 6 7 1 0
BITMAP
B4
CC
84
84
84
CC
FC
ENDCHAR
STARTCHAR C0165
ENCODING 165
SWIDTH 600 0
DWIDTH 8 0
BBX 6 11 1 0
BITMAP
04
04
FC
80
80
80
80
80
80
80
80
ENDCHAR
STARTCHAR C0166
ENCODING 166
SWIDTH 600 0
DWIDTH 8 0
BBX 1 11 3 -2
BITMAP
80
80
80
80
80
00
80
80
80
80
80
ENDCHAR
STARTCHAR C0167
ENCODING 167
SWIDTH 600 0
DWIDTH 8 0
BBX 6 12 1 -3
BITMAP
F8
84
80
E0
B8
84
84
7C
1C
84
84
78
ENDCHAR
STARTCHAR C0168
ENCODING 168
SWIDTH 600 0
DWIDTH 8 0
BBX 6 11 1 0
BITMAP
48
00
FC
80
80
80
F8
80
80
80
FC
ENDCHAR
STARTCHAR C0169
ENCODING 169
SWIDTH 600 0
DWIDTH 8 0
BBX 6 7 1 0
BITMAP
78
B4
CC
C4
CC
B4
78
ENDCHAR
STARTCHAR C0170
ENCODING 170
SWIDTH 600 0
DWIDTH 8 0
BBX 6 9 1 0
BITMAP
78
84
84
80
F8
80
84
C4
78
ENDCHAR
STARTCHAR C0171
ENCODING 171
SWIDTH 600 0
DWIDTH 8 0
BBX 4 5 2 1
BITMAP
50
A0
A0
A0
50
ENDCHAR
STARTCHAR C0172
ENCODING 172
SWIDTH 600 0
DWIDTH 8 0
BBX 5 3 1 2
BITMAP
F8
08
08
ENDCHAR
STARTCHAR C0173
ENCODING 173
SWIDTH 600 0
DWIDTH 8 0
BBX 5 1 1 4
BITMAP
F8
ENDCHAR
STARTCHAR C0174
ENCODING 174
SWIDTH 600 0
DWIDTH 8 0
BBX 6 7 1 0
BITMAP
78
B4
CC
B4
D4
CC
78
ENDCHAR
STARTCHAR C0175
ENCODING 175
SWIDTH 600 0
DWIDTH 8 0
BBX 6 11 1 0
BITMAP
48
00
FC
20
20
20
20
20
20
20
FC
ENDCHAR
STARTCHAR C0176
ENCODING 176
SWIDTH 600 0
DWIDTH 8 0
BBX 4 3 2 6
BITMAP
E0
90
60
ENDCHAR
STARTCHAR C0177
ENCODING 177
SWIDTH 600 0
DWIDTH 8 0
BBX 6 8 1 0
BITMAP
20
20
20
FC
20
20
00
FC
ENDCHAR
STARTCHAR C0178
ENCODING 178
SWIDTH 600 0
DWIDTH 8 0
BBX 6 9 1 0
BITMAP
FC
20
20
20
20
20
20
20
FC
ENDCHAR
STARTCHAR C0179
ENCODING 179
SWIDTH 600 0
DWIDTH 8 0
BBX 6 9 1 0
BITMAP
30
00
F0
10
10
10
10
10
FC
ENDCHAR
STARTCHAR C0180
ENCODING 180
SWIDTH 600 0
DWIDTH 8 0
BBX 6 9 1 0
BITMAP
04
04
FC
80
80
80
80
80
80
ENDCHAR
STARTCHAR C0181
ENCODING 181
SWIDTH 600 0
DWIDTH 8 0
BBX 6 10 1 -3
BITMAP
8C
8C
8C
8C
8C
CC
F4
80
80
80
ENDCHAR
STARTCHAR C0182
ENCODING 182
SWIDTH 600 0
DWIDTH 8 0
BBX 5 9 1 0
BITMAP
78
78
F8
F8
78
38
08
08
08
ENDCHAR
STARTCHAR C0183
ENCODING 183
SWIDTH 600 0
DWIDTH 8 0
BBX 2 1 3 4
BITMAP
C0
ENDCHAR
STARTCHAR C0184
ENCODING 184
SWIDTH 600 0
DWIDTH 8 0
BBX 6 9 1 0
BITMAP
48
00
78
CC
84
FC
80
C4
78
ENDCHAR
STARTCHAR C0185
ENCODING 185
SWIDTH 600 0
DWIDTH 8 0
BBX 6 9 1 0
BITMAP
9C
9C
DC
D0
DC
B0
B0
B0
B0
ENDCHAR
STARTCHAR C0186
ENCODING 186
SWIDTH 600 0
DWIDTH 8 0
BBX 6 7 1 0
BITMAP
78
CC
80
F0
80
CC
78
ENDCHAR
STARTCHAR C0187
ENCODING 187
SWIDTH 600 0
DWIDTH 8 0
BBX 4 5 2 1
BITMAP
A0
50
50
50
A0
ENDCHAR
STARTCHAR C0188
ENCODING 188
SWIDTH 600 0
DWIDTH 8 0
BBX 4 12 1 -3
BITMAP
10
00
70
10
10
10
10
10
10
10
10
E0
ENDCHAR
STARTCHAR C0189
ENCODING 189
SWIDTH 600 0
DWIDTH 8 0
BBX 6 9 1 0
BITMAP
78
84
80
40
38
0C
84
84
78
ENDCHAR
STARTCHAR C0190
ENCODING 190
SWIDTH 600 0
DWIDTH 8 0
BBX 6 7 1 0
BITMAP
78
CC
C0
78
0C
84
78
ENDCHAR
STARTCHAR C0191
ENCODING 191
SWIDTH 600 0
DWIDTH 8 0
BBX 6 9 1 0
BITMAP
48
00
F0
10
10
10
10
10
FC
ENDCHAR
STARTCHAR C0192
ENCODING 192
SWIDTH 600 0
DWIDTH 8 0
BBX 6 9 1 0
BITMAP
30
30
30
48
48
48
FC
84
84
ENDCHAR
STARTCHAR C0193
ENCODING 193
SWIDTH 600 0
DWIDTH 8 0
BBX 6 9 1 0
BITMAP
FC
80
80
80
F8
84
84
8C
F8
ENDCHAR
STARTCHAR C0194
ENCODING 194
SWIDTH 600 0
DWIDTH 8 0
BBX 6 9 1 0
BITMAP
F8
84
84
88
F8
84
84
8C
F8
ENDCHAR
STARTCHAR C0195
ENCODING 195
SWIDTH 600 0
DWIDTH 8 0
BBX 6 9 1 0
BITMAP
FC
80
80
80
80
80
80
80
80
ENDCHAR
STARTCHAR C0196
ENCODING 196
SWIDTH 600 0
DWIDTH 8 0
BBX 7 11 0 -2
BITMAP
3C
24
24
24
24
24
24
64
FE
42
42
ENDCHAR
STARTCHAR C0197
ENCODING 197
SWIDTH 600 0
DWIDTH 8 0
BBX 6 9 1 0
BITMAP
FC
80
80
80
F8
80
80
80
FC
ENDCHAR
STARTCHAR C0198
ENCODING 198
SWIDTH 600 0
DWIDTH 8 0
BBX 8 9 0 0
BITMAP
D2
52
74
34
3C
74
56
52
D3
ENDCHAR
STARTCHAR C0199
ENCODING 199
SWIDTH 600 0
DWIDTH 8 0
BBX 6 9 1 0
BITMAP
F8
84
04
0C
38
04
84
84
78
ENDCHAR
STARTCHAR C0200
ENCODING 200
SWIDTH 600 0
DWIDTH 8 0
BBX 6 9 1 0
BITMAP
8C
8C
94
94
A4
A4
C4
C4
84
ENDCHAR
STARTCHAR C0201
ENCODING 201
SWIDTH 600 0
DWIDTH 8 0
BBX 6 12 1 0
BITMAP
58
20
00
8C
8C
94
94
A4
A4
C4
C4
84
ENDCHAR
STARTCHAR C0202
ENCODING 202
SWIDTH 600 0
DWIDTH 8 0
BBX 7 9 1 0
BITMAP
84
88
90
B0
E0
90
98
8C
86
ENDCHAR
STARTCHAR C0203
ENCODING 203
SWIDTH 600 0
DWIDTH 8 0
BBX 7 9 0 0
BITMAP
3E
22
22
22
22
22
22
62
C2
ENDCHAR
STARTCHAR C0204
ENCODING 204
SWIDTH 600 0
DWIDTH 8 0
BBX 6 9 1 0
BITMAP
CC
CC
CC
B4
B4
B4
84
84
84
ENDCHAR
STARTCHAR C0205
ENCODING 205
SWIDTH 600 0
DWIDTH 8 0
BBX 6 9 1 0
BITMAP
84
84
84
84
FC
84
84
84
84
ENDCHAR
STARTCHAR C0206
ENCODING 206
SWIDTH 600 0
DWIDTH 8 0
BBX 6 9 1 0
BITMAP
78
8C
84
84
84
84
84
CC
78
ENDCHAR
STARTCHAR C0207
ENCODING 207
SWIDTH 600 0
DWIDTH 8 0
BBX 6 9 1 0
BITMAP
FC
84
84
84
84
84
84
84
84
ENDCHAR
STARTCHAR C0208
ENCODING 208
SWIDTH 600 0
DWIDTH 8 0
BBX 6 9 1 0
BITMAP
F8
84
84
84
F8
80
80
80
80
ENDCHAR
STARTCHAR C0209
ENCODING 209
SWIDTH 600 0
DWIDTH 8 0
BBX 6 9 1 0
BITMAP
78
84
84
80
80
80
84
CC
78
ENDCHAR
STARTCHAR C0210
ENCODING 210
SWIDTH 600 0
DWIDTH 8 0
BBX 7 9 0 0
BITMAP
FE
10
10
10
10
10
10
10
10
ENDCHAR
STARTCHAR C0211
ENCODING 211
SWIDTH 600 0
DWIDTH 8 0
BBX 8 9 0 0
BITMAP
C3
42
24
24
3C
18
18
10
70
ENDCHAR
STARTCHAR C0212
ENCODING 212
SWIDTH 600 0
DWIDTH 8 0
BBX 7 9 0 0
BITMAP
10
3C
52
52
D2
52
56
3C
10
ENDCHAR
STARTCHAR C0213
ENCODING 213
SWIDTH 600 0
DWIDTH 8 0
BBX 6 9 1 0
BITMAP
84
48
58
30
30
30
48
CC
84
ENDCHAR
STARTCHAR C0214
ENCODING 214
SWIDTH 600 0
DWIDTH 8 0
BBX 7 11 1 -2
BITMAP
84
84
84
84
84
84
84
84
FE
06
06
ENDCHAR
STARTCHAR C0215
ENCODING 215
SWIDTH 600 0
DWIDTH 8 0
BBX 6 9 1 0
BITMAP
84
84
84
84
5C
24
04
04
04
ENDCHAR
STARTCHAR C0216
ENCODING 216
SWIDTH 600 0
DWIDTH 8 0
BBX 6 9 1 0
BITMAP
A4
A4
A4
A4
A4
A4
A4
A4
FC
ENDCHAR
STARTCHAR C0217
ENCODING 217
SWIDTH 600 0
DWIDTH 8 0
BBX 7 11 1 -2
BITMAP
A4
A4
A4
A4
A4
A4
A4
A4
FE
06
04
ENDCHAR
STARTCHAR C0218
ENCODING 218
SWIDTH 600 0
DWIDTH 8 0
BBX 7 9 0 0
BITMAP
E0
20
20
20
3E
22
22
22
3C
ENDCHAR
STARTCHAR C0219
ENCODING 219
SWIDTH 600 0
DWIDTH 8 0
BBX 6 9 1 0
BITMAP
84
84
84
84
F4
94
94
94
E4
ENDCHAR
STARTCHAR C0220
ENCODING 220
SWIDTH 600 0
DWIDTH 8 0
BBX 6 9 1 0
BITMAP
80
80
80
80
F8
84
84
8C
F8
ENDCHAR
STARTCHAR C0221
ENCODING 221
SWIDTH 600 0
DWIDTH 8 0
BBX 6 9 1 0
BITMAP
78
8C
84
04
3C
04
84
8C
78
ENDCHAR
STARTCHAR C0222
ENCODING 222
SWIDTH 600 0
DWIDTH 8 0
BBX 6 9 1 0
BITMAP
BC
A4
A4
A4
E4
A4
A4
A4
B8
ENDCHAR
STARTCHAR C0223
ENCODING 223
SWIDTH 600 0
DWIDTH 8 0
BBX 7 9 0 0
BITMAP
3E
42
42
42
3E
22
22
42
C2
ENDCHAR
STARTCHAR C0224
ENCODING 224
SWIDTH 600 0
DWIDTH 8 0
BBX 6 7 1 0
BITMAP
78
88
0C
7C
8C
8C
7C
ENDCHAR
STARTCHAR C0225
ENCODING 225
SWIDTH 600 0
DWIDTH 8 0
BBX 6 10 1 0
BITMAP
08
38
40
80
F8
84
84
84
8C
78
ENDCHAR
STARTCHAR C0226
ENCODING 226
SWIDTH 600 0
DWIDTH 8 0
BBX 6 7 1 0
BITMAP
F8
8C
88
F8
8C
84
F8
ENDCHAR
STARTCHAR C0227
ENCODING 227
SWIDTH 600 0
DWIDTH 8 0
BBX 6 7 1 0
BITMAP
FC
80
80
80
80
80
80
ENDCHAR
STARTCHAR C0228
ENCODING 228
SWIDTH 600 0
DWIDTH 8 0
BBX 7 9 0 -2
BITMAP
3E
26
26
26
26
26
FE
C2
C2
ENDCHAR
STARTCHAR C0229
ENCODING 229
SWIDTH 600 0
DWIDTH 8 0
BBX 6 7 1 0
BITMAP
78
CC
84
FC
80
C4
78
ENDCHAR
STARTCHAR C0230
ENCODING 230
SWIDTH 600 0
DWIDTH 8 0
BBX 8 7 0 0
BITMAP
D2
56
34
3C
74
56
D3
ENDCHAR
STARTCHAR C0231
ENCODING 231
SWIDTH 600 0
DWIDTH 8 0
BBX 6 7 1 0
BITMAP
78
8C
04
38
04
84
78
ENDCHAR
STARTCHAR C0232
ENCODING 232
SWIDTH 600 0
DWIDTH 8 0
BBX 6 7 1 0
BITMAP
8C
8C
94
B4
A4
C4
C4
ENDCHAR
STARTCHAR C0233
ENCODING 233
SWIDTH 600 0
DWIDTH 8 0
BBX 6 9 1 0
BITMAP
58
20
8C
8C
94
B4
A4
C4
C4
ENDCHAR
STARTCHAR C0234
ENCODING 234
SWIDTH 600 0
DWIDTH 8 0
BBX 6 7 1 0
BITMAP
8C
88
90
E0
90
88
84
ENDCHAR
STARTCHAR C0235
ENCODING 235
SWIDTH 600 0
DWIDTH 8 0
BBX 7 7 0 0
BITMAP
3E
22
22
22
22
62
C2
ENDCHAR
STARTCHAR C0236
ENCODING 236
SWIDTH 600 0
DWIDTH 8 0
BBX 6 7 1 0
BITMAP
8C
CC
CC
D4
B4
B4
A4
ENDCHAR
STARTCHAR C0237
ENCODING 237
SWIDTH 600 0
DWIDTH 8 0
BBX 6 7 1 0
BITMAP
84
84
84
FC
84
84
84
ENDCHAR
STARTCHAR C0238
ENCODING 238
SWIDTH 600 0
DWIDTH 8 0
BBX 6 7 1 0
BITMAP
78
CC
84
84
84
8C
78
ENDCHAR
STARTCHAR C0239
ENCODING 239
SWIDTH 600 0
DWIDTH 8 0
BBX 6 7 1 0
BITMAP
FC
84
84
84
84
84
84
ENDCHAR
STARTCHAR C0240
ENCODING 240
SWIDTH 600 0
DWIDTH 8 0
BBX 6 10 1 -3
BITMAP
B8
CC
84
84
84
8C
F8
80
80
80
ENDCHAR
STARTCHAR C0241
ENCODING 241
SWIDTH 600 0
DWIDTH 8 0
BBX 6 7 1 0
BITMAP
78
CC
80
80
80
CC
78
ENDCHAR
STARTCHAR C0242
ENCODING 242
SWIDTH 600 0
DWIDTH 8 0
BBX 6 7 1 0
BITMAP
FC
30
30
30
30
30
30
ENDCHAR
STARTCHAR C0243
ENCODING 243
SWIDTH 600 0
DWIDTH 8 0
BBX 7 10 0 -3
BITMAP
C2
46
24
24
38
18
18
10
30
60
ENDCHAR
STARTCHAR C0244
ENCODING 244
SWIDTH 600 0
DWIDTH 8 0
BBX 6 13 1 -3
BITMAP
20
20
20
78
EC
A4
A4
A4
AC
78
20
20
20
ENDCHAR
STARTCHAR C0245
ENCODING 245
SWIDTH 600 0
DWIDTH 8 0
BBX 6 7 1 0
BITMAP
84
48
30
30
30
48
8C
ENDCHAR
STARTCHAR C0246
ENCODING 246
SWIDTH 600 0
DWIDTH 8 0
BBX 6 9 1 -2
BITMAP
8C
8C
8C
8C
8C
8C
FC
04
04
ENDCHAR
STARTCHAR C0247
ENCODING 247
SWIDTH 600 0
DWIDTH 8 0
BBX 6 7 1 0
BITMAP
84
84
84
C4
7C
04
04
ENDCHAR
STARTCHAR C0248
ENCODING 248
SWIDTH 600 0
DWIDTH 8 0
BBX 6 7 1 0
BITMAP
A4
A4
A4
A4
A4
A4
FC
ENDCHAR
STARTCHAR C0249
ENCODING 249
SWIDTH 600 0
DWIDTH 8 0
BBX 6 9 1 -2
BITMAP
A4
A4
A4
A4
A4
A4
FC
04
04
ENDCHAR
STARTCHAR C0250
ENCODING 250
SWIDTH 600 0
DWIDTH 8 0
BBX 7 7 0 0
BITMAP
E0
20
20
3E
22
22
3C
ENDCHAR
STARTCHAR C0251
ENCODING 251
SWIDTH 600 0
DWIDTH 8 0
BBX 6 7 1 0
BITMAP
84
84
84
F4
94
94
E4
ENDCHAR
STARTCHAR C0252
ENCODING 252
SWIDTH 600 0
DWIDTH 8 0
BBX 6 7 1 0
BITMAP
80
80
80
F8
84
84
F8
ENDCHAR
STARTCHAR C0253
ENCODING 253
SWIDTH 600 0
DWIDTH 8 0
BBX 6 7 1 0
BITMAP
70
88
04
3C
04
88
78
ENDCHAR
STARTCHAR C0254
ENCODING 254
SWIDTH 600 0
DWIDTH 8 0
BBX 6 7 1 0
BITMAP
98
A4
A4
E4
A4
A4
98
ENDCHAR
STARTCHAR C0255
ENCODING 255
SWIDTH 600 0
DWIDTH 8 0
BBX 7 7 0 0
BITMAP
3E
42
42
7E
22
62
C2
ENDCHAR
ENDFONT

